<svg width="30" height="30" viewBox="0 0 30 30" fill="none" xmlns="http://www.w3.org/2000/svg">
<path d="M20.8251 30C21.5028 29.9982 22.0959 29.5441 22.2746 28.8902L23.6569 23.7284L28.8917 22.3287C29.6894 22.1117 30.1617 21.291 29.9491 20.4923L27.2349 10.374L27.4497 9.57407C27.644 8.83736 27.255 8.07203 26.5455 7.79465L25.3234 3.23155C25.1046 2.43441 24.2861 1.96135 23.4864 2.16962L14.559 4.56491L7.07308 2.55754C6.76624 2.47332 6.44041 2.49094 6.14455 2.60766L4.27445 0.740357C3.64406 0.104113 2.72171 -0.146264 1.85633 0.0842022C0.990952 0.314669 0.315033 0.990506 0.0843873 1.85607C-0.146258 2.72164 0.103608 3.64442 0.739484 4.27494L4.14814 7.68434L0.0642516 22.9331C-0.149462 23.7328 0.32327 24.5546 1.12183 24.772L20.4359 29.948C20.5626 29.9826 20.6935 30.0002 20.8251 30ZM28.9819 20.7507C29.0526 21.0159 28.8963 21.2887 28.6318 21.3617L23.9562 22.6116L26.7159 12.3069L28.9819 20.7507ZM23.7423 3.13657C23.8711 3.10132 24.0086 3.11917 24.1241 3.186C24.2397 3.2526 24.3237 3.36292 24.3575 3.492L25.4238 7.47584L16.49 5.08192L23.7423 3.13657ZM15.1448 15.1506L12.6212 14.3093L14.3036 12.6248L15.1448 15.1488V15.1506ZM13.1104 12.407L8.86905 8.16426C8.67387 7.96904 8.35719 7.96904 8.16201 8.16449C7.96683 8.35972 7.96706 8.67646 8.16247 8.87169L12.404 13.1132L11.6974 13.8209L4.62796 6.74988L5.33477 6.04292L6.74816 7.4573C6.8747 7.58363 7.05867 7.63307 7.23142 7.58661C7.40395 7.54038 7.53872 7.40558 7.58494 7.23301C7.63116 7.06045 7.58197 6.87621 7.45566 6.74988L6.04204 5.33596L6.74885 4.62854L13.8172 11.6995L13.1104 12.407ZM3.21389 5.33596L5.33477 3.21461L6.04158 3.92157L3.92116 6.04292L3.21389 5.33596ZM1.00743 2.50765C1.00743 1.90093 1.37284 1.35371 1.93321 1.12165C2.49381 0.889576 3.13884 1.01797 3.56764 1.44709L4.62796 2.50765L2.50708 4.62899L1.44629 3.56798C1.16439 3.28739 1.00628 2.90564 1.00743 2.50765ZM1.03054 23.1956L4.96524 8.50161L11.3435 14.8812C11.3956 14.9322 11.4583 14.9709 11.5274 14.9947C11.5313 14.9947 11.5343 15.0002 11.5389 15.0016L14.8315 16.1015C14.9342 16.1354 15.042 16.1521 15.1502 16.1516C15.3386 16.1509 15.5228 16.0967 15.6811 15.9951L21.4294 17.539C21.4717 17.5507 21.5154 17.5566 21.5594 17.5564C21.8104 17.5564 22.0222 17.3703 22.0547 17.1216C22.0875 16.8728 21.9307 16.6384 21.6884 16.5737L16.1401 15.0838C16.1351 14.9988 16.1197 14.9149 16.0941 14.8336L14.9944 11.54C14.9944 11.5354 14.9889 11.5325 14.9869 11.5279C14.9631 11.4595 14.9244 11.397 14.8738 11.345L7.14813 3.61444L26.1281 8.69958C26.2565 8.73391 26.3658 8.81767 26.4322 8.93279C26.4986 9.04768 26.5164 9.18431 26.4821 9.31271L21.3095 28.6286C21.2754 28.757 21.1914 28.8667 21.0763 28.933C20.9612 28.9994 20.8244 29.0173 20.6963 28.9827L1.38428 23.8085C1.25615 23.7742 1.14678 23.6904 1.08019 23.5755C1.01383 23.4604 0.995986 23.3238 1.03054 23.1956Z" fill="#88ABFF"/>
<path d="M23.1131 11.7596C23.3639 11.7594 23.5757 11.5733 23.6085 11.3246C23.641 11.076 23.4842 10.8414 23.2421 10.7767L16.1326 8.87137C15.9583 8.81942 15.7697 8.86633 15.64 8.99381C15.5102 9.12106 15.4599 9.30896 15.5084 9.48404C15.5569 9.65935 15.697 9.79438 15.8736 9.83672L22.9836 11.7425C23.0259 11.7539 23.0694 11.7596 23.1131 11.7596Z" fill="#88ABFF"/>
<path d="M22.3364 14.6565C22.5872 14.6563 22.7991 14.4705 22.8318 14.2217C22.8645 13.9729 22.7078 13.7386 22.4655 13.6736L17.6318 12.3802C17.4581 12.3308 17.2714 12.3786 17.143 12.5059C17.0146 12.6329 16.965 12.8194 17.0128 12.9936C17.0606 13.1678 17.1986 13.3026 17.3739 13.3461L22.2076 14.6396C22.2495 14.6508 22.2929 14.6565 22.3364 14.6565Z" fill="#88ABFF"/>
<path d="M6.91281 15.7165L5.46327 15.3281C5.28937 15.2773 5.10152 15.3244 4.97246 15.4517C4.84341 15.5787 4.79307 15.7657 4.84112 15.9405C4.88918 16.1152 5.02784 16.2502 5.2038 16.2935L6.65334 16.6825C6.6959 16.6937 6.73937 16.6995 6.78331 16.6995C7.03432 16.6997 7.24643 16.5136 7.27915 16.2649C7.31187 16.0161 7.15513 15.7815 6.91281 15.7165Z" fill="#88ABFF"/>
<path d="M21.2671 20.0806C21.3385 19.814 21.1802 19.5402 20.9138 19.4686L9.80853 16.4929C9.55088 16.4426 9.29827 16.6005 9.23009 16.8541C9.16213 17.1076 9.30193 17.3708 9.5502 17.4562L20.6548 20.4321C20.6972 20.4438 20.7406 20.4495 20.7843 20.4495C21.0102 20.4497 21.2081 20.2985 21.2671 20.0806Z" fill="#88ABFF"/>
<path d="M6.1359 18.6141L4.68636 18.2255C4.42024 18.1557 4.14773 18.3141 4.07656 18.5798C4.0054 18.8457 4.1626 19.1192 4.42802 19.1916L5.87757 19.5795C5.91967 19.5912 5.96314 19.5971 6.00708 19.5969C6.25786 19.5971 6.46997 19.411 6.50269 19.1623C6.53564 18.9135 6.37844 18.6789 6.1359 18.6141Z" fill="#88ABFF"/>
<path d="M20.1376 22.3665L9.03294 19.3901C8.85858 19.3384 8.67004 19.3853 8.5403 19.5126C8.41056 19.64 8.36022 19.8277 8.40873 20.003C8.45724 20.1781 8.59727 20.3131 8.77392 20.3557L19.8788 23.3319C19.9211 23.3435 19.9648 23.3495 20.0087 23.3495C20.2595 23.3492 20.4714 23.1632 20.5041 22.9144C20.5366 22.6656 20.3799 22.4313 20.1376 22.3665Z" fill="#88ABFF"/>
</svg>
