<svg width="82" height="73" viewBox="0 0 82 73" fill="none" xmlns="http://www.w3.org/2000/svg">
<path d="M26.6586 29.5332H0.732604C0.043816 29.5332 -0.264761 30.4136 0.275249 30.8482L19.1646 46.1214L8.09988 70.583C7.71416 71.4356 8.48009 72.355 9.37827 72.1154L26.6145 67.5016L35.2271 48.4673L26.6586 29.5332Z" fill="url(#paint0_linear_1117_19112)"/>
<path d="M80.2708 29.5336H54.3338L41.1642 0.430446C40.9052 -0.143482 40.0952 -0.143482 39.8362 0.430446L30.6836 20.674L51.5236 66.7331L71.6307 72.1158C72.5233 72.3554 73.2893 71.436 72.9091 70.5835L61.8444 46.1218L80.7337 30.8487C81.2627 30.414 80.9596 29.5336 80.2708 29.5336Z" fill="white"/>
<defs>
<linearGradient id="paint0_linear_1117_19112" x1="7.74298" y1="51.4698" x2="31.5851" y2="39.681" gradientUnits="userSpaceOnUse">
<stop stop-color="#1E5AF4"/>
<stop offset="1" stop-color="#D63BF5"/>
</linearGradient>
</defs>
</svg>
