<svg width="108" height="88" viewBox="0 0 108 88" fill="none" xmlns="http://www.w3.org/2000/svg">
<path d="M25.5506 37.3617C21.9455 37.3617 19.023 34.4073 19.023 30.7629C19.023 27.1184 21.9455 24.1641 25.5506 24.1641C29.1556 24.1641 32.0781 27.1184 32.0781 30.7629C32.0781 34.4073 29.1556 37.3617 25.5506 37.3617Z" fill="#B4D2FF"/>
<path d="M82.6482 37.3617C79.0431 37.3617 76.1206 34.4073 76.1206 30.7629C76.1206 27.1184 79.0431 24.1641 82.6482 24.1641C86.2533 24.1641 89.1758 27.1184 89.1758 30.7629C89.1758 34.4073 86.2533 37.3617 82.6482 37.3617Z" fill="#B4D2FF"/>
<path d="M80.803 39.8226H90.4955L103.551 26.625L107.902 31.0242L91.1548 47.9545V87.5472H84.6272V66.8843H80.2755V87.6139H73.7479V46.9546C73.9457 43.0887 76.9128 39.8226 80.803 39.8226Z" fill="#B4D2FF"/>
<path d="M32.671 0.96875H40.3194V21.2317L43.2206 24.1645H64.7813L68.0781 21.0318V0.96875H75.7266V24.1645L64.7813 35.0959V87.553H56.6713V57.5584H51.3306V87.553H43.2206V35.0959L32.671 24.4311V0.96875Z" fill="white"/>
<path d="M54.034 20.0332C49.5914 20.0332 45.9899 16.3925 45.9899 11.9014C45.9899 7.41029 49.5914 3.76953 54.034 3.76953C58.4767 3.76953 62.0781 7.41029 62.0781 11.9014C62.0781 16.3925 58.4767 20.0332 54.034 20.0332Z" fill="white"/>
<path d="M27.1949 39.8226H17.5025L4.44734 26.625L0.0956154 31.0242L16.8431 47.9545V87.5472H23.3707V66.8843H27.7224V87.6139H34.25V46.9546C34.0522 43.0887 31.0851 39.8226 27.1949 39.8226Z" fill="#B4D2FF"/>
</svg>
